<?xml version="1.0" encoding="UTF-8" standalone="no"?>
<svg xmlns="http://www.w3.org/2000/svg" version="1.1" viewBox="0 0 12.7 7.9381204">
 <path d="m7.1436 3.9691q0 0.64484-0.25112 1.2308-0.25112 0.58594-0.67894 1.0138-0.42782 0.42783-1.0138 0.67894-0.58594 0.25112-1.2308 0.25112-0.64484 0-1.2308-0.25112-0.58594-0.25111-1.0138-0.67894-0.42783-0.42782-0.67894-1.0138-0.25111-0.58593-0.25111-1.2308 0-0.64484 0.25111-1.2308 0.25112-0.58594 0.67894-1.0138 0.42782-0.42783 1.0138-0.67895 0.58594-0.25111 1.2308-0.25111 0.64484 0 1.2308 0.25111 0.58594 0.25112 1.0138 0.67895 0.42783 0.42782 0.67894 1.0138 0.25112 0.58593 0.25112 1.2308zm4.7619 0q0 0.64484-0.25112 1.2308-0.25111 0.58594-0.67894 1.0138-0.42782 0.42783-1.0138 0.67894-0.58594 0.25112-1.2308 0.25112h-2.3933q0.73784-0.55803 1.1688-1.3889 0.43093-0.83085 0.43093-1.7857 0-0.95486-0.43093-1.7857-0.43093-0.83085-1.1688-1.3889h2.3933q0.64484 0 1.2308 0.25111 0.58593 0.25112 1.0138 0.67895 0.42783 0.42782 0.67894 1.0138 0.25112 0.58593 0.25112 1.2308zm0.79365 0q0-0.80605-0.31622-1.5408t-0.84635-1.2649q-0.531-0.53014-1.265-0.84636-0.735-0.31622-1.5411-0.31622h-4.7619q-0.80605 0-1.5408 0.31622-0.73474 0.31622-1.2649 0.84635-0.53013 0.53013-0.84635 1.2649-0.31622 0.73474-0.31622 1.5408 0 0.80605 0.31622 1.5408t0.84635 1.2649q0.53013 0.53013 1.2649 0.84635 0.73474 0.31622 1.5408 0.31622h4.7619q0.80605 0 1.5408-0.31622 0.73474-0.31622 1.2649-0.84635 0.53013-0.53013 0.84635-1.2649 0.31622-0.73474 0.31622-1.5408z" stroke-width=".0016405px"/>
</svg>
