<?xml version="1.0" encoding="UTF-8" standalone="no"?>
<svg xmlns="http://www.w3.org/2000/svg" version="1.1" viewBox="0 0 12.7 7.9375">
<path
     d="M 0,3.9687 Q 0,4.7749 0.31625977,5.5097 0.63251953,6.2446 1.1627197,6.7748 1.6929199,7.305 2.4277588,7.6212 3.1625977,7.9375 3.96875,7.9375 h 4.7625 q 0.8061524,0 1.540991,-0.3163 Q 11.00708,7.305 11.53728,6.7748 12.067481,6.2446 12.38374,5.5097 12.7,4.7749 12.7,3.9687 12.7,3.1626 12.38374,2.4278 12.067481,1.6929 11.53728,1.1627 11.00708,0.6325 10.272241,0.3163 9.5374024,0 8.73125,0 H 3.96875 Q 3.1625977,0 2.4277588,0.3163 1.6929199,0.6325 1.1627197,1.1627 0.63251953,1.6929 0.31625977,2.4278 0,3.1626 0,3.9687 Z m 8.73125,-3.175 q 0.6449219,0 1.2309326,0.2512 0.5860104,0.2511 1.0138914,0.679 0.427881,0.4279 0.679029,1.0139 0.251147,0.586 0.251147,1.2309 0,0.645 -0.251147,1.231 -0.251148,0.586 -0.679029,1.0139 Q 10.548193,6.6415 9.9621826,6.8926 9.3761719,7.1437 8.73125,7.1437 8.0863281,7.1437 7.5003174,6.8926 6.9143067,6.6415 6.4864258,6.2136 6.0585449,5.7857 5.8073975,5.1997 5.55625,4.6137 5.55625,3.9687 5.55625,3.3238 5.8073975,2.7378 6.0585449,2.1518 6.4864258,1.7239 6.9143067,1.296 7.5003174,1.0449 8.0863281,0.7937 8.73125,0.7937 Z"
     style="fill-opacity:1;stroke-width:0.00620117" />
</svg>
